<svg width="48" height="49" viewBox="0 0 48 49" fill="none" xmlns="http://www.w3.org/2000/svg">
<path d="M24.04 4.1814C35.4 4.1814 44 13.541 44 24.2492C44 36.6684 33.92 44.3775 24 44.3775C20.72 44.3775 17.08 43.4918 14.16 41.7608C13.14 41.1368 12.28 40.6739 11.18 41.0362L7.14 42.2439C6.12 42.5659 5.2 41.7608 5.5 40.6739L6.84 36.1652C7.06 35.5412 7.02 34.8769 6.7 34.3536C4.98 31.1734 4 27.6912 4 24.3096C4 13.7222 12.42 4.1814 24.04 4.1814ZM33.18 21.7533C31.76 21.7533 30.62 22.9007 30.62 24.3298C30.62 25.7387 31.76 26.9062 33.18 26.9062C34.6 26.9062 35.74 25.7387 35.74 24.3298C35.74 22.9007 34.6 21.7533 33.18 21.7533ZM23.96 21.7533C22.56 21.7332 21.4 22.9007 21.4 24.3096C21.4 25.7387 22.54 26.886 23.96 26.9062C25.38 26.9062 26.52 25.7387 26.52 24.3298C26.52 22.9007 25.38 21.7533 23.96 21.7533ZM14.74 21.7533C13.32 21.7533 12.18 22.9007 12.18 24.3298C12.18 25.7387 13.34 26.9062 14.74 26.9062C16.16 26.886 17.3 25.7387 17.3 24.3298C17.3 22.9007 16.16 21.7533 14.74 21.7533Z" fill="#9E9EA7"/>
</svg>
