<svg width="24" height="25" viewBox="0 0 24 25" fill="none" xmlns="http://www.w3.org/2000/svg">
<path d="M9.26316 0.235352C14.3791 0.235352 18.5263 4.40191 18.5263 9.54163C18.5263 11.6539 17.8259 13.6017 16.6457 15.1636L23.63 22.1807C24.1233 22.6763 24.1233 23.4798 23.63 23.9754C23.1816 24.4259 22.4798 24.4669 21.9853 24.0983L21.8437 23.9754L14.8591 16.9585C13.3044 18.1442 11.3656 18.8479 9.26316 18.8479C4.14726 18.8479 0 14.6813 0 9.54163C0 4.40191 4.14726 0.235352 9.26316 0.235352ZM9.26316 2.77343C5.5425 2.77343 2.52632 5.80365 2.52632 9.54163C2.52632 13.2796 5.5425 16.3098 9.26316 16.3098C12.9838 16.3098 16 13.2796 16 9.54163C16 5.80365 12.9838 2.77343 9.26316 2.77343Z" fill="#9E9EA7"/>
<g clip-path="url(#clip0_1_2604)">
<path d="M9.26316 0.235352C14.3791 0.235352 18.5263 4.40191 18.5263 9.54163C18.5263 11.6539 17.8259 13.6017 16.6457 15.1636L23.63 22.1807C24.1233 22.6763 24.1233 23.4798 23.63 23.9754C23.1816 24.4259 22.4798 24.4669 21.9853 24.0983L21.8437 23.9754L14.8591 16.9585C13.3044 18.1442 11.3656 18.8479 9.26316 18.8479C4.14726 18.8479 0 14.6813 0 9.54163C0 4.40191 4.14726 0.235352 9.26316 0.235352ZM9.26316 2.77343C5.5425 2.77343 2.52632 5.80365 2.52632 9.54163C2.52632 13.2796 5.5425 16.3098 9.26316 16.3098C12.9838 16.3098 16 13.2796 16 9.54163C16 5.80365 12.9838 2.77343 9.26316 2.77343Z" fill="#9E9EA7"/>
</g>
<defs>
<clipPath id="clip0_1_2604">
<rect width="24" height="25" fill="white"/>
</clipPath>
</defs>
</svg>
