<svg width="26" height="26" viewBox="0 0 26 26" fill="none" xmlns="http://www.w3.org/2000/svg">
<path d="M22.6926 8.99716C22.6817 8.17667 22.5281 7.36433 22.2387 6.59649C21.9877 5.94882 21.6044 5.36062 21.1133 4.86948C20.6221 4.37833 20.0339 3.99503 19.3863 3.74408C18.6283 3.45955 17.8275 3.3057 17.0181 3.28908C15.9759 3.24249 15.6455 3.22949 13 3.22949C10.3545 3.22949 10.0154 3.22949 8.98085 3.28908C8.17177 3.30582 7.37139 3.45967 6.61377 3.74408C5.96599 3.99486 5.3777 4.37809 4.88653 4.86926C4.39536 5.36043 4.01213 5.94872 3.76135 6.59649C3.47625 7.35389 3.32273 8.15445 3.30743 8.96358C3.26085 10.0068 3.24677 10.3372 3.24677 12.9827C3.24677 15.6282 3.24677 15.9662 3.30743 17.0019C3.32368 17.8122 3.47643 18.6117 3.76135 19.3712C4.01255 20.0187 4.39607 20.6068 4.8874 21.0977C5.37874 21.5887 5.96708 21.9718 6.61485 22.2225C7.3704 22.5185 8.17092 22.6833 8.98193 22.71C10.0252 22.7566 10.3556 22.7707 13.0011 22.7707C15.6466 22.7707 15.9857 22.7707 17.0203 22.71C17.8297 22.6941 18.6305 22.5406 19.3884 22.2561C20.0359 22.0048 20.624 21.6214 21.1151 21.1303C21.6062 20.6392 21.9896 20.0512 22.2409 19.4037C22.5258 18.6453 22.6785 17.8458 22.6948 17.0344C22.7413 15.9922 22.7554 15.6618 22.7554 13.0152C22.7533 10.3697 22.7533 10.0339 22.6926 8.99716ZM12.9935 17.9856C10.2267 17.9856 7.98526 15.7442 7.98526 12.9773C7.98526 10.2105 10.2267 7.96908 12.9935 7.96908C14.3218 7.96908 15.5957 8.49673 16.5349 9.43596C17.4741 10.3752 18.0018 11.6491 18.0018 12.9773C18.0018 14.3056 17.4741 15.5795 16.5349 16.5187C15.5957 17.4579 14.3218 17.9856 12.9935 17.9856ZM18.2011 8.95166C18.0477 8.9518 17.8958 8.92169 17.754 8.86305C17.6123 8.80442 17.4835 8.7184 17.375 8.60993C17.2665 8.50145 17.1805 8.37266 17.1219 8.2309C17.0632 8.08915 17.0331 7.93723 17.0333 7.78383C17.0333 7.63053 17.0635 7.47874 17.1221 7.33712C17.1808 7.1955 17.2668 7.06682 17.3752 6.95843C17.4836 6.85003 17.6122 6.76405 17.7539 6.70539C17.8955 6.64673 18.0473 6.61653 18.2006 6.61653C18.3538 6.61653 18.5056 6.64673 18.6473 6.70539C18.7889 6.76405 18.9176 6.85003 19.026 6.95843C19.1344 7.06682 19.2203 7.1955 19.279 7.33712C19.3377 7.47874 19.3678 7.63053 19.3678 7.78383C19.3678 8.42949 18.8457 8.95166 18.2011 8.95166Z" fill="#9C7092"/>
<path d="M12.9935 16.2306C14.7902 16.2306 16.2467 14.7741 16.2467 12.9774C16.2467 11.1807 14.7902 9.72412 12.9935 9.72412C11.1968 9.72412 9.74023 11.1807 9.74023 12.9774C9.74023 14.7741 11.1968 16.2306 12.9935 16.2306Z" fill="#9C7092"/>
</svg>
